# xmcd CD database file
#
# Track frame offsets:
#	150
#	28876
#	47777
#	75528
#	89554
#	109430
#	124281
#	144007
#	162083
#	175959
#	197260
#	224411
#	238062
#	286513
#
# Disc length: 4167 seconds
#
# Revision: 0
# Processed by: cddbd v1.5.1PL0 Copyright (c) Steve Scherf et al.
# Submitted via: CDex 1.51
#
DISCID=c110450e
DTITLE=James Morrison - Gospel Collection
DYEAR=2005
DGENRE=Jazz
TTITLE0=Down By The Riverside
TTITLE1=Jesus Loves Me
TTITLE2=Joyful, Joyful
TTITLE3=Jesus Is The Way
TTITLE4=Just A Closer Walk With Thee
TTITLE5=There's A Place
TTITLE6=Cabin In The Corner
TTITLE7=My Tribute (To God Be The Glory)
TTITLE8=It's Not Just A Story
TTITLE9=Amazing Grace
TTITLE10=His Eye Is On The Sparrow
TTITLE11=Blessed Assurance
TTITLE12=What A Friend We Have In Jesus
TTITLE13=The Old Rugged Cross
EXTD=YEAR: 2005
EXTT0=
EXTT1=
EXTT2=
EXTT3=
EXTT4=
EXTT5=
EXTT6=
EXTT7=
EXTT8=
EXTT9=
EXTT10=
EXTT11=
EXTT12=
EXTT13=
PLAYORDER=
